<?xml version="1.0" standalone="no"?>
<!DOCTYPE svg PUBLIC "-//W3C//DTD SVG 20010904//EN"
 "http://www.w3.org/TR/2001/REC-SVG-20010904/DTD/svg10.dtd">
<svg version="1.0" xmlns="http://www.w3.org/2000/svg"
 width="276.000000pt" height="276.000000pt" viewBox="0 0 276.000000 276.000000"
 preserveAspectRatio="xMidYMid meet">
<metadata>
Created by potrace 1.14, written by Peter Selinger 2001-2017
</metadata>
<g transform="translate(0.000000,276.000000) scale(0.100000,-0.100000)"
fill="#000000" stroke="none">
<path d="M1072 2119 c-9 -4 -20 -5 -24 -2 -5 2 -8 0 -8 -5 0 -5 -6 -9 -12 -9
-31 -1 -72 -13 -78 -22 -3 -6 -16 -12 -29 -14 -12 -2 -27 -10 -32 -18 -5 -8
-9 -10 -9 -5 0 5 -7 3 -15 -4 -8 -7 -15 -9 -15 -4 0 5 -5 1 -11 -9 -6 -9 -14
-15 -20 -12 -5 4 -9 -1 -9 -9 0 -9 -9 -16 -20 -16 -10 0 -24 -9 -30 -20 -6
-11 -14 -18 -18 -16 -5 3 -9 -5 -9 -16 -1 -12 -7 -25 -14 -29 -7 -4 -12 -23
-12 -42 0 -30 -2 -33 -14 -21 -8 8 -18 14 -23 14 -20 0 -40 -13 -40 -26 0 -7
-14 -27 -30 -44 -16 -17 -30 -35 -30 -41 0 -6 -5 -7 -10 -4 -6 4 -10 3 -9 -2
4 -25 -2 -45 -14 -40 -8 3 -14 -5 -15 -21 -3 -34 -4 -35 -68 -37 -34 -1 -59
-6 -64 -14 -4 -8 -19 -13 -33 -13 -17 0 -24 -5 -20 -14 3 -9 -2 -14 -15 -14
-12 0 -24 -5 -28 -12 -4 -7 -3 -8 4 -4 7 4 12 3 12 -1 0 -5 16 -9 34 -9 25 0
32 4 25 12 -9 11 73 18 199 16 37 0 50 3 45 11 -5 9 -3 9 8 1 8 -6 61 -12 119
-13 59 -1 107 -7 111 -13 4 -7 9 -7 13 1 4 6 13 11 19 11 7 0 6 -4 -3 -10 -8
-5 -10 -10 -5 -11 92 -8 107 -11 115 -21 3 -4 24 -9 47 -10 25 -2 39 -7 36
-14 -2 -7 7 -11 23 -11 14 0 29 -5 33 -11 6 -11 35 -19 71 -21 13 -1 13 -2 0
-11 -11 -7 -7 -10 17 -10 17 0 35 -5 39 -12 5 -7 3 -8 -6 -3 -9 5 -11 4 -6 -3
4 -7 14 -12 22 -12 9 0 22 -6 30 -14 7 -8 23 -12 34 -9 12 3 20 0 20 -6 0 -7
5 -9 10 -6 6 3 10 1 10 -4 0 -6 3 -10 8 -10 23 4 52 -3 65 -15 7 -8 25 -16 38
-18 13 -1 27 -7 30 -11 3 -5 24 -10 45 -11 21 -2 38 -7 37 -12 -1 -6 28 -11
65 -12 37 -1 69 -7 70 -12 3 -8 8 -7 17 0 9 8 15 8 20 0 3 -6 11 -7 17 -4 7 4
8 2 4 -4 -5 -8 4 -11 26 -11 68 3 89 -1 82 -13 -5 -8 0 -9 14 -6 12 4 24 3 26
0 2 -4 41 -7 85 -7 45 1 81 -3 81 -8 0 -5 7 -4 15 3 12 10 15 10 15 -4 0 -9 5
-16 11 -16 5 0 7 5 3 11 -4 8 0 8 15 0 16 -9 21 -9 21 1 0 9 3 10 8 2 4 -8 61
-12 165 -13 l157 -2 0 43 c0 24 -4 48 -8 53 -12 16 -32 16 -38 0 -4 -8 -10
-15 -16 -15 -5 0 -6 6 -2 13 6 9 5 9 -7 0 -8 -6 -27 -13 -44 -14 -16 -2 -33
-8 -36 -12 -3 -5 -41 -10 -83 -12 -63 -2 -78 0 -85 14 -5 9 -6 22 -4 29 6 17
-18 11 -35 -8 -12 -13 -13 -13 -6 0 7 13 5 13 -9 2 -20 -17 -287 -14 -281 3 2
5 -10 11 -28 12 -51 4 -58 6 -58 15 0 4 11 8 24 8 13 0 26 7 30 15 3 8 12 15
20 15 18 0 77 55 69 64 -4 3 -1 6 5 6 9 0 12 22 10 69 -1 38 -6 69 -11 68 -5
-1 -12 4 -15 12 -3 8 0 11 6 7 6 -4 5 6 -3 20 -8 15 -12 31 -9 36 3 4 1 8 -4
8 -5 0 -9 6 -9 13 0 19 -36 91 -50 100 -7 4 -13 17 -13 27 0 11 -7 20 -15 20
-8 0 -14 6 -13 13 2 7 -7 12 -22 12 -14 0 -26 -6 -26 -12 -1 -7 -2 -22 -3 -33
0 -11 -7 -19 -13 -18 -7 2 -14 -7 -16 -20 -2 -12 -8 -20 -13 -17 -5 4 -9 0 -9
-8 0 -7 -11 -24 -24 -36 -22 -21 -24 -21 -21 -5 1 11 7 18 12 17 5 -1 9 18 8
41 0 32 3 42 13 39 10 -4 12 12 11 76 -1 45 -4 79 -7 77 -2 -3 -17 3 -32 14
-16 11 -35 20 -43 20 -8 0 -17 7 -21 15 -3 8 -12 15 -21 15 -8 0 -15 5 -15 11
0 5 -4 7 -10 4 -5 -3 -10 -1 -10 5 0 6 -4 9 -9 5 -5 -3 -12 -1 -16 5 -4 6 -11
8 -16 5 -5 -4 -9 -1 -9 4 0 6 -13 11 -30 11 -21 0 -30 5 -30 16 0 9 -8 14 -17
13 -38 -3 -64 1 -58 11 12 20 -8 10 -31 -16 -13 -14 -24 -32 -24 -40 0 -7 -6
-14 -14 -14 -8 0 -16 -5 -18 -12 -2 -6 -24 -12 -49 -12 l-46 -1 1 37 c1 20 5
40 10 45 5 5 6 2 1 -6 -6 -10 -4 -12 5 -6 33 21 -62 50 -108 34z m698 -279 c0
-5 -2 -10 -4 -10 -3 0 -8 5 -11 10 -3 6 -1 10 4 10 6 0 11 -4 11 -10z"/>
<path d="M446 1513 c-1 -1 -20 -3 -41 -4 -22 -2 -43 -7 -47 -12 -3 -6 -42 -11
-86 -11 -45 -1 -84 -4 -87 -8 -6 -6 -9 -76 -6 -135 1 -29 34 -23 67 12 12 14
28 25 34 25 6 0 8 4 5 10 -3 6 1 7 9 4 9 -3 16 -1 16 5 0 7 8 11 18 9 10 -2
16 2 14 10 -1 8 1 11 5 9 5 -3 27 -2 49 2 28 5 52 4 70 -5 16 -7 23 -13 17
-13 -7 -1 -13 -6 -13 -12 0 -5 5 -7 10 -4 6 3 10 -1 10 -9 0 -9 5 -16 11 -16
5 0 7 -5 3 -12 -4 -7 -3 -8 5 -4 6 4 9 12 6 17 -4 5 3 9 14 9 10 0 21 6 23 12
5 15 196 19 205 5 3 -5 9 -4 13 3 5 8 9 7 13 -5 4 -9 3 -13 -2 -10 -6 3 -13
-1 -18 -9 -4 -8 -17 -16 -28 -18 -11 -1 -29 -13 -41 -25 -11 -13 -23 -20 -26
-17 -3 3 -15 -6 -26 -20 -11 -15 -25 -26 -31 -26 -6 0 -10 -3 -10 -7 4 -24 -3
-43 -14 -43 -17 0 -17 -114 1 -132 6 -6 12 -22 12 -34 0 -29 10 -55 19 -50 4
3 8 -7 9 -20 1 -14 9 -32 17 -40 8 -9 13 -20 10 -24 -3 -5 2 -18 12 -29 35
-39 43 -50 43 -65 0 -9 9 -20 20 -26 11 -6 17 -16 14 -22 -4 -7 -3 -8 4 -4 7
4 12 18 12 32 0 14 4 22 10 19 6 -3 10 1 10 9 0 8 6 21 13 28 8 7 17 26 20 41
8 28 22 31 45 9 17 -15 8 -47 -10 -36 -8 5 -7 0 2 -11 9 -11 10 -16 3 -11 -9
5 -13 0 -13 -16 0 -13 -5 -29 -11 -35 -7 -7 -13 -29 -14 -49 -2 -20 -9 -40
-16 -45 -10 -6 -11 -9 -1 -9 6 0 12 -9 12 -20 0 -11 5 -20 11 -20 7 0 18 -8
26 -17 8 -10 11 -12 8 -5 -6 11 -3 11 14 0 12 -7 21 -16 21 -21 0 -4 6 -7 13
-6 29 4 47 -2 47 -15 0 -9 9 -13 25 -11 14 1 25 -2 25 -7 0 -5 4 -6 10 -3 6 3
10 0 10 -8 0 -9 12 -13 39 -13 27 1 37 -2 30 -10 -6 -7 4 -11 33 -12 23 -1 44
-6 48 -11 3 -6 22 -12 43 -14 20 -2 40 -6 43 -10 3 -3 12 -3 20 0 9 3 14 -1
14 -12 0 -9 5 -13 10 -10 6 4 7 11 4 17 -5 7 -1 7 12 0 14 -8 21 -6 32 6 13
16 13 16 8 -1 -3 -11 -2 -16 4 -12 6 3 10 17 10 31 0 14 7 27 15 30 8 3 17 14
20 25 4 11 11 17 16 14 5 -3 6 1 3 9 -4 11 0 16 10 16 13 0 20 16 18 41 -1 3
5 6 12 6 16 0 15 -38 -1 -55 -7 -7 -13 -32 -13 -55 0 -27 -3 -37 -9 -29 -6 11
-9 9 -14 -7 -6 -24 0 -31 25 -31 13 0 17 -4 12 -12 -6 -10 -5 -10 7 -1 8 6 29
10 47 9 19 -1 45 3 58 10 14 7 22 10 20 5 -3 -4 1 -8 9 -8 8 0 12 4 9 9 -4 7
24 13 48 10 3 -1 12 5 18 13 7 8 21 15 32 15 10 0 30 7 43 16 14 9 25 13 25 9
0 -5 8 -1 18 8 9 8 30 19 45 23 21 5 25 9 15 15 -9 6 -7 9 10 9 13 0 33 11 46
25 13 14 32 25 42 25 16 0 17 2 4 10 -13 8 -11 11 7 16 13 4 20 10 17 15 -3 5
2 9 10 9 9 0 16 7 16 15 0 8 7 15 15 15 9 0 12 6 9 15 -4 10 0 15 15 15 14 0
19 -5 15 -15 -4 -8 -4 -15 -2 -15 12 0 46 37 52 58 4 12 12 20 17 17 5 -4 9 0
9 7 0 8 13 25 30 40 16 14 26 28 23 32 -4 3 1 7 10 7 31 3 35 4 44 13 5 5 3 6
-4 2 -7 -4 -13 -2 -13 3 0 6 7 11 15 11 17 0 62 37 54 44 -2 3 -32 6 -67 7
-44 2 -62 6 -62 16 0 7 7 13 16 13 8 0 13 4 10 9 -3 5 4 11 15 14 12 3 19 10
16 14 -3 5 9 10 26 11 18 1 37 9 43 17 6 8 24 15 39 15 16 0 25 3 22 7 -4 3 1
12 11 19 16 12 16 13 -2 20 -12 4 -30 1 -46 -8 -23 -13 -50 -14 -132 -6 -9 1
-15 5 -12 9 2 4 -15 7 -38 7 -116 -1 -207 5 -205 16 2 10 -19 13 -111 15 -24
1 -41 5 -38 9 5 8 -15 11 -104 17 -25 2 -49 4 -53 4 -5 1 -5 6 -2 11 4 6 3 10
-2 9 -37 -6 -114 3 -127 16 -8 9 -18 16 -21 15 -26 -1 -35 2 -30 10 4 6 -6 10
-24 10 -16 0 -33 5 -37 12 -5 7 -2 8 7 3 10 -5 11 -5 4 3 -5 6 -26 12 -45 14
-24 2 -34 7 -32 17 3 12 0 12 -12 1 -11 -8 -16 -9 -16 -1 0 6 -9 11 -20 11
-11 0 -20 5 -20 10 0 6 -15 10 -34 10 -21 0 -36 6 -40 15 -4 11 -20 15 -56 15
-33 0 -52 5 -56 13 -3 8 -23 14 -54 14 -27 1 -59 7 -72 14 -13 7 -40 12 -60
12 -21 0 -35 3 -33 8 6 9 -17 16 -59 18 -16 0 -35 6 -42 11 -6 6 -36 13 -66
16 -29 2 -64 9 -78 15 -22 8 -148 18 -154 12z m1921 -389 c-3 -3 -12 -4 -19
-1 -8 3 -5 6 6 6 11 1 17 -2 13 -5z"/>
<path d="M1750 1280 c0 -5 5 -10 11 -10 5 0 7 5 4 10 -3 6 -8 10 -11 10 -2 0
-4 -4 -4 -10z"/>
<path d="M1960 1160 c-9 -6 -10 -10 -3 -10 6 0 15 5 18 10 8 12 4 12 -15 0z"/>
<path d="M2310 964 c0 -8 5 -12 10 -9 6 4 8 11 5 16 -9 14 -15 11 -15 -7z"/>
</g>
</svg>
