<svg width="30" height="30" viewBox="0 0 30 30" fill="none" xmlns="http://www.w3.org/2000/svg">
<path d="M15.2213 0.773438C11.3551 0.773438 10.8689 0.791361 9.34983 0.859471C7.83076 0.931165 6.79609 1.17134 5.88964 1.52623C4.93838 1.88528 4.07698 2.45 3.36617 3.18057C2.64029 3.89597 2.07919 4.76294 1.72244 5.72034C1.36984 6.63085 1.12942 7.67401 1.05997 9.19751C0.992296 10.73 0.974487 11.2175 0.974487 15.1141C0.974487 19.0071 0.992296 19.4946 1.05997 21.0235C1.1312 22.5506 1.36984 23.5919 1.72244 24.5042C2.08752 25.447 2.57369 26.2464 3.36617 27.044C4.15687 27.8416 4.95113 28.3327 5.88786 28.6983C6.79609 29.0532 7.82898 29.2952 9.34627 29.3651C10.8671 29.4332 11.3515 29.4511 15.2213 29.4511C19.0911 29.4511 19.5737 29.4332 21.0945 29.3651C22.61 29.2934 23.6483 29.0532 24.5547 28.6983C25.5054 28.339 26.3661 27.7743 27.0764 27.044C27.8689 26.2464 28.3551 25.447 28.7201 24.5042C29.071 23.5919 29.3114 22.5506 29.3826 21.0235C29.4503 19.4946 29.4681 19.0071 29.4681 15.1123C29.4681 11.2175 29.4503 10.73 29.3826 9.1993C29.3114 7.67401 29.071 6.63085 28.7201 5.72034C28.3634 4.76294 27.8023 3.89597 27.0764 3.18057C26.3656 2.45 25.5042 1.88528 24.553 1.52623C23.6447 1.17134 22.6083 0.929372 21.0928 0.859471C19.5719 0.791361 19.0893 0.773438 15.2177 0.773438H15.2213ZM13.9444 3.35801H15.2231C19.027 3.35801 19.4775 3.37056 20.9788 3.44046C22.3679 3.50319 23.1229 3.73799 23.6251 3.93336C24.2894 4.19325 24.7649 4.50512 25.2635 5.00698C25.7622 5.50884 26.0702 5.98561 26.3285 6.65595C26.5244 7.1596 26.7559 7.91956 26.8182 9.3176C26.8877 10.8286 26.9019 11.282 26.9019 15.1087C26.9019 18.9354 26.8877 19.3906 26.8182 20.9016C26.7559 22.2996 26.5226 23.0578 26.3285 23.5632C26.0984 24.185 25.7341 24.7476 25.2617 25.2104C24.7631 25.7123 24.2894 26.0223 23.6234 26.2822C23.1247 26.4794 22.3696 26.7124 20.9788 26.7769C19.4775 26.845 19.027 26.8612 15.2231 26.8612C11.4192 26.8612 10.9668 26.845 9.46559 26.7769C8.07652 26.7124 7.32322 26.4794 6.82102 26.2822C6.20277 26.0515 5.64316 25.6854 5.18264 25.2104C4.70942 24.7473 4.34444 24.184 4.11413 23.5614C3.92002 23.0578 3.68672 22.2978 3.62439 20.8998C3.55672 19.3888 3.54247 18.9354 3.54247 15.1051C3.54247 11.2748 3.55672 10.825 3.62439 9.31401C3.6885 7.91597 3.92002 7.15601 4.11591 6.65057C4.37413 5.98202 4.684 5.50346 5.18264 5.0016C5.68128 4.49974 6.15498 4.18967 6.82102 3.92978C7.32322 3.73262 8.07652 3.49961 9.46559 3.43509C10.7799 3.37415 11.2892 3.35622 13.9444 3.35443V3.35801ZM22.8273 5.73826C22.6028 5.73826 22.3805 5.78277 22.1731 5.86924C21.9656 5.95571 21.7772 6.08245 21.6184 6.24223C21.4597 6.40201 21.3337 6.59169 21.2478 6.80045C21.1619 7.00921 21.1177 7.23296 21.1177 7.45892C21.1177 7.68488 21.1619 7.90863 21.2478 8.11739C21.3337 8.32615 21.4597 8.51584 21.6184 8.67561C21.7772 8.83539 21.9656 8.96214 22.1731 9.04861C22.3805 9.13508 22.6028 9.17958 22.8273 9.17958C23.2807 9.17958 23.7156 8.9983 24.0362 8.67561C24.3568 8.35293 24.5369 7.91527 24.5369 7.45892C24.5369 7.00257 24.3568 6.56492 24.0362 6.24223C23.7156 5.91955 23.2807 5.73826 22.8273 5.73826ZM15.2231 7.74928C14.2526 7.73405 13.2889 7.91326 12.3879 8.27649C11.487 8.63972 10.6668 9.17971 9.97518 9.86502C9.28356 10.5503 8.7343 11.3673 8.35939 12.2683C7.98448 13.1693 7.79141 14.1363 7.79141 15.1132C7.79141 16.09 7.98448 17.0571 8.35939 17.9581C8.7343 18.8591 9.28356 19.676 9.97518 20.3613C10.6668 21.0466 11.487 21.5866 12.3879 21.9499C13.2889 22.3131 14.2526 22.4923 15.2231 22.4771C17.1438 22.4469 18.9757 21.6578 20.3234 20.2801C21.6711 18.9024 22.4264 17.0465 22.4264 15.1132C22.4264 13.1798 21.6711 11.324 20.3234 9.94626C18.9757 8.56855 17.1438 7.77944 15.2231 7.74928ZM15.2231 10.3321C15.8468 10.3321 16.4644 10.4557 17.0406 10.6959C17.6169 10.9362 18.1405 11.2883 18.5815 11.7322C19.0225 12.176 19.3724 12.703 19.6111 13.283C19.8498 13.8629 19.9726 14.4845 19.9726 15.1123C19.9726 15.74 19.8498 16.3616 19.6111 16.9416C19.3724 17.5215 19.0225 18.0485 18.5815 18.4924C18.1405 18.9363 17.6169 19.2884 17.0406 19.5286C16.4644 19.7688 15.8468 19.8925 15.2231 19.8925C13.9634 19.8925 12.7554 19.3889 11.8647 18.4924C10.9739 17.5959 10.4735 16.3801 10.4735 15.1123C10.4735 13.8445 10.9739 12.6286 11.8647 11.7322C12.7554 10.8357 13.9634 10.3321 15.2231 10.3321Z" fill="#376300"/>
</svg>
