<svg width="32" height="33" viewBox="0 0 32 33" fill="none" xmlns="http://www.w3.org/2000/svg">
<path d="M7.90413 3.942C7.91056 4.74492 7.5941 5.51806 7.02319 6.09424C6.45228 6.67041 5.67279 7.00333 4.85328 7.021C4.03548 6.9919 3.26035 6.65612 2.68813 6.08307C2.11591 5.51002 1.79034 4.74352 1.77872 3.942C1.81406 3.16088 2.15146 2.42219 2.72244 1.87582C3.29343 1.32945 4.05524 1.01633 4.85328 1C5.64896 1.01665 6.40807 1.33055 6.97522 1.87747C7.54237 2.42438 7.87468 3.16295 7.90413 3.942ZM2.10822 12.4917C2.10822 10.7223 3.25792 10.9986 4.85328 10.9986C6.44863 10.9986 7.57463 10.7223 7.57463 12.4917V29.7304C7.57463 31.523 6.42493 31.1561 4.85328 31.1561C3.28162 31.1561 2.10822 31.523 2.10822 29.7304V12.4917ZM12.3157 12.494C12.3157 11.5048 12.6902 11.1356 13.2757 11.0218C13.8636 10.9057 15.8809 11.0218 16.585 11.0218C17.289 11.0218 17.5711 12.148 17.5474 12.9979C18.1495 12.2064 18.9489 11.5794 19.869 11.177C20.7891 10.7745 21.7992 10.6099 22.8028 10.6991C23.7884 10.6401 24.7755 10.7849 25.7002 11.124C26.6249 11.4631 27.4665 11.9889 28.1702 12.6673C28.874 13.3457 29.4242 14.1615 29.7851 15.0617C30.146 15.962 30.3096 16.9265 30.2652 17.8927V29.6607C30.2652 31.4533 29.1392 31.0864 27.5415 31.0864C25.9461 31.0864 24.8201 31.4533 24.8201 29.6607V20.4678C24.8615 19.9948 24.7984 19.5185 24.6351 19.0715C24.4719 18.6244 24.2124 18.217 23.8742 17.8769C23.536 17.5368 23.127 17.272 22.675 17.1004C22.2231 16.9289 21.7387 16.8546 21.2549 16.8826C20.7729 16.8702 20.2937 16.9583 19.8491 17.141C19.4045 17.3237 19.0047 17.597 18.676 17.9426C18.3474 18.2882 18.0976 18.6982 17.943 19.1456C17.7885 19.593 17.7328 20.0674 17.7797 20.5375V29.7304C17.7797 31.523 16.63 31.1561 15.0346 31.1561C13.4393 31.1561 12.3133 31.523 12.3133 29.7304V12.4917L12.3157 12.494Z" stroke="#376300" stroke-width="2" stroke-linecap="round" stroke-linejoin="round"/>
</svg>
