<svg width="28" height="27" viewBox="0 0 28 27" fill="none" xmlns="http://www.w3.org/2000/svg">
<path fill-rule="evenodd" clip-rule="evenodd" d="M5.96593 16.3146C6.02444 16.3353 6.08461 16.3502 6.14568 16.3593C6.53095 17.3214 6.91405 18.2845 7.29499 19.2485C7.97995 20.9832 8.67036 22.7698 8.82151 23.2835C9.01079 23.9156 9.20961 24.3457 9.42749 24.6401C9.54051 24.7902 9.66988 24.9229 9.8224 25.0239C9.90185 25.0766 9.98686 25.1193 10.0757 25.1509C10.5114 25.3241 10.9091 25.252 11.1583 25.1639C11.3045 25.111 11.4437 25.0383 11.5722 24.9475L11.579 24.9446L15.4273 22.4018L19.8734 26.0125C19.9388 26.0659 20.0096 26.1106 20.0859 26.1467C20.6197 26.392 21.1371 26.4786 21.6247 26.4094C22.1094 26.3372 22.4948 26.1222 22.7821 25.8783C23.1121 25.5965 23.3751 25.2367 23.5502 24.8277L23.5624 24.7959L23.5665 24.7844L23.5692 24.7786V24.7757L23.5706 24.7743C23.5943 24.7122 23.6125 24.648 23.6251 24.5823L27.6831 2.89919C27.6959 2.82979 27.7023 2.75922 27.7021 2.6885C27.7021 2.05352 27.4761 1.44884 26.9464 1.08373C26.4915 0.770565 25.9863 0.756134 25.6663 0.78211C25.3232 0.810973 25.0045 0.900447 24.7907 0.972604C24.671 1.0128 24.5529 1.05806 24.4367 1.10826L24.4217 1.11547L1.66145 10.5767L1.65873 10.5781C1.58172 10.6082 1.50586 10.6414 1.43132 10.6777C1.25083 10.7637 1.0777 10.8661 0.913851 10.9837C0.604735 11.2073 -0.107458 11.8221 0.0137372 12.8381C0.109059 13.6462 0.63197 14.1441 0.95198 14.3837C1.12628 14.515 1.29242 14.6088 1.41497 14.6709C1.46944 14.6997 1.58655 14.7488 1.63694 14.7719L1.65056 14.7762L5.96593 16.3146ZM25.2183 3.10701H25.2156C25.2039 3.11252 25.1921 3.11781 25.1802 3.12288L2.39271 12.5971C2.38098 12.6021 2.36918 12.6069 2.3573 12.6115L2.34369 12.6158C2.30206 12.6332 2.26117 12.6524 2.22113 12.6736C2.25903 12.6966 2.29813 12.7173 2.33824 12.7356L6.61684 14.2625C6.6933 14.2898 6.76644 14.3266 6.83472 14.3721L20.9656 5.60508L20.9792 5.59786C21.0341 5.56251 21.0904 5.52977 21.148 5.49973C21.2461 5.44633 21.4027 5.3684 21.5797 5.31068C21.7023 5.27027 22.0659 5.15626 22.458 5.29047C22.6661 5.35996 22.8514 5.49004 22.993 5.66586C23.1346 5.84169 23.2267 6.05616 23.2587 6.2848C23.3095 6.48503 23.3109 6.69571 23.2628 6.89669C23.1675 7.29355 22.9061 7.60238 22.6677 7.83906C22.4635 8.0411 19.8135 10.7484 17.2003 13.4211L13.6421 17.0578L13.0089 17.7072L21.0051 24.2042C21.113 24.2523 21.2302 24.2721 21.3469 24.262C21.4056 24.2535 21.4609 24.2275 21.5062 24.1869C21.5614 24.1375 21.6087 24.0791 21.6464 24.0138L21.6492 24.0123L25.5846 2.98145C25.4606 3.01305 25.3391 3.05454 25.221 3.10556L25.2183 3.10701ZM13.6966 20.9933L12.1006 19.6973L11.7139 22.3022L13.6966 20.9933ZM10.6367 17.1257L12.2232 15.5021L15.7814 11.8625L17.1064 10.5089L8.22779 16.0173L8.27545 16.1357C8.83541 17.5376 9.38919 18.9422 9.93678 20.3496L10.3222 17.752C10.357 17.511 10.4679 17.2912 10.6367 17.1257Z" fill="#376300"/>
</svg>
