<svg width="26" height="28" viewBox="0 0 26 28" fill="none" xmlns="http://www.w3.org/2000/svg">
<path d="M6.1594 3.53394C6.16481 4.22549 5.89826 4.89139 5.41739 5.38765C4.93651 5.88391 4.27996 6.17065 3.58968 6.18587C2.90085 6.1608 2.24797 5.8716 1.76599 5.37803C1.28401 4.88447 1.00979 4.22428 1 3.53394C1.02977 2.86116 1.31396 2.22493 1.7949 1.75434C2.27583 1.28376 2.9175 1.01407 3.58968 1C4.25988 1.01434 4.89927 1.2847 5.37698 1.75576C5.85469 2.22682 6.13459 2.86294 6.1594 3.53394ZM1.27754 10.8977C1.27754 9.37379 2.24592 9.61178 3.58968 9.61178C4.93344 9.61178 5.88186 9.37379 5.88186 10.8977V25.7454C5.88186 27.2893 4.91348 26.9733 3.58968 26.9733C2.26589 26.9733 1.27754 27.2893 1.27754 25.7454V10.8977ZM9.8752 10.8997C9.8752 10.0478 10.1907 9.72978 10.6839 9.63178C11.179 9.53178 12.8782 9.63178 13.4712 9.63178C14.0642 9.63178 14.3018 10.6018 14.2819 11.3337C14.789 10.652 15.4623 10.112 16.2373 9.76538C17.0123 9.41873 17.8632 9.27702 18.7085 9.35379C19.5386 9.30302 20.3701 9.42771 21.149 9.71977C21.9278 10.0118 22.6367 10.4647 23.2294 11.049C23.8222 11.6333 24.2856 12.336 24.5896 13.1113C24.8936 13.8867 25.0314 14.7175 24.994 15.5496V25.6854C24.994 27.2293 24.0456 26.9133 22.6998 26.9133C21.3561 26.9133 20.4076 27.2293 20.4076 25.6854V17.7676C20.4425 17.3601 20.3893 16.95 20.2518 16.5649C20.1144 16.1799 19.8958 15.8289 19.6109 15.536C19.326 15.2431 18.9815 15.015 18.6009 14.8672C18.2202 14.7195 17.8122 14.6555 17.4047 14.6797C16.9987 14.6689 16.5951 14.7448 16.2206 14.9022C15.8461 15.0596 15.5093 15.2949 15.2325 15.5926C14.9557 15.8902 14.7453 16.2434 14.6151 16.6288C14.485 17.0141 14.4381 17.4227 14.4775 17.8276V25.7454C14.4775 27.2893 13.5091 26.9733 12.1654 26.9733C10.8216 26.9733 9.87321 27.2893 9.87321 25.7454V10.8977L9.8752 10.8997Z" stroke="white" stroke-opacity="0.8" stroke-width="2" stroke-linecap="round" stroke-linejoin="round"/>
</svg>
