<svg width="25" height="21" viewBox="0 0 25 21" fill="none" xmlns="http://www.w3.org/2000/svg">
<path fill-rule="evenodd" clip-rule="evenodd" d="M5.384 12.7193C5.4368 12.7362 5.4911 12.7485 5.54622 12.7559C5.89391 13.5433 6.23964 14.3315 6.58342 15.1205C7.20157 16.5402 7.82463 18.0024 7.96104 18.4229C8.13186 18.9402 8.31128 19.2922 8.50791 19.5331C8.60991 19.6559 8.72666 19.7646 8.8643 19.8473C8.936 19.8904 9.01272 19.9253 9.09288 19.9512C9.48613 20.0929 9.84497 20.0339 10.0699 19.9618C10.2018 19.9185 10.3274 19.859 10.4435 19.7847L10.4496 19.7823L13.9225 17.7012L17.9349 20.6563C17.9939 20.7 18.0578 20.7366 18.1267 20.7662C18.6084 20.967 19.0754 21.0378 19.5153 20.9811C19.9528 20.9221 20.3006 20.7461 20.5599 20.5465C20.8577 20.3158 21.095 20.0214 21.253 19.6866L21.2641 19.6607L21.2678 19.6512L21.2702 19.6465V19.6441L21.2715 19.6429C21.2928 19.5921 21.3093 19.5396 21.3206 19.4859L24.9828 1.73978C24.9944 1.68297 25.0001 1.62522 25 1.56734C25 1.04765 24.796 0.552768 24.3179 0.253949C23.9075 -0.00235082 23.4516 -0.014162 23.1628 0.00709786C22.8531 0.0307199 22.5655 0.103948 22.3726 0.163003C22.2646 0.195903 22.158 0.232941 22.0531 0.274027L22.0395 0.279933L1.49939 8.02324L1.49693 8.02443C1.42743 8.04899 1.35897 8.07618 1.2917 8.10592C1.12882 8.1763 0.972579 8.26008 0.824712 8.35632C0.545748 8.53939 -0.0969765 9.04254 0.0123972 9.87403C0.0984215 10.5355 0.570326 10.9429 0.859122 11.139C1.01642 11.2465 1.16635 11.3232 1.27695 11.374C1.32611 11.3977 1.4318 11.4378 1.47727 11.4567L1.48956 11.4603L5.384 12.7193ZM22.7585 1.90986H22.756C22.7454 1.91437 22.7348 1.9187 22.724 1.92285L2.15932 9.67679C2.14874 9.6809 2.13809 9.68484 2.12737 9.6886L2.11508 9.69214C2.07751 9.70633 2.04061 9.7221 2.00447 9.73939C2.03868 9.75822 2.07396 9.77517 2.11016 9.79018L5.97142 11.0398C6.04042 11.0621 6.10643 11.0923 6.16805 11.1295L18.9205 3.95434L18.9328 3.94844C18.9824 3.91951 19.0332 3.89271 19.0852 3.86812C19.1737 3.82442 19.315 3.76064 19.4748 3.7134C19.5854 3.68033 19.9135 3.58702 20.2674 3.69686C20.4552 3.75373 20.6225 3.8602 20.7502 4.00409C20.878 4.14799 20.9611 4.32352 20.99 4.51064C21.0358 4.67452 21.0371 4.84695 20.9937 5.01143C20.9077 5.33624 20.6717 5.58899 20.4567 5.78269C20.2723 5.94805 17.8809 8.1638 15.5226 10.3512L12.3114 13.3276L11.74 13.8591L18.9562 19.1764C19.0536 19.2157 19.1594 19.2319 19.2646 19.2236C19.3177 19.2167 19.3675 19.1954 19.4084 19.1622C19.4582 19.1218 19.501 19.074 19.535 19.0205L19.5375 19.0193L23.089 1.8071C22.9771 1.83296 22.8675 1.86692 22.7609 1.90867L22.7585 1.90986ZM12.3606 16.5484L10.9203 15.4878L10.5713 17.6197L12.3606 16.5484ZM9.59919 13.3831L11.0309 12.0543L14.242 9.07561L15.4378 7.96773L7.42523 12.476L7.46825 12.5729C7.97358 13.7202 8.47335 14.8698 8.96753 16.0217L9.31531 13.8957C9.34678 13.6985 9.44685 13.5186 9.59919 13.3831Z" fill="white" fill-opacity="0.8"/>
</svg>
