<svg width="61" height="37" viewBox="0 0 61 37" fill="none" xmlns="http://www.w3.org/2000/svg">
<g clip-path="url(#clip0_872_268)">
<path d="M21.0554 24.1643C20.7474 21.9594 19.6669 19.9328 18.0038 18.4407L14.0485 24.1643H21.0554ZM27.4145 24.1643C25.812 20.0833 24.2095 16.0531 22.5728 11.9213L19.3847 16.5103L19.5722 16.6966C21.7032 18.5535 23.0641 21.1303 23.3911 23.9272C23.3911 24.1643 23.5615 24.2151 23.7661 24.2151H27.1758H27.4998M29.6479 23.1313L40.3545 10.6513H24.6697L29.6479 23.1313ZM16.1113 17.2215C14.4014 16.325 12.451 15.9848 10.5359 16.2492C8.62083 16.5136 6.8378 17.3691 5.43883 18.6947C4.35138 19.7138 3.52664 20.9777 3.03398 22.3797C2.54133 23.7818 2.3953 25.281 2.60818 26.7508C2.82106 28.2207 3.3866 29.6182 4.25717 30.8255C5.12773 32.0328 6.27772 33.0145 7.61029 33.6878C8.94285 34.3611 10.4189 34.7063 11.914 34.6944C13.409 34.6824 14.8792 34.3135 16.2007 33.6189C17.5221 32.9244 18.6561 31.9244 19.507 30.7033C20.3578 29.4822 20.9006 28.0758 21.0896 26.6027H12.0537C11.8128 26.638 11.5669 26.6003 11.3479 26.4946C11.1289 26.3889 10.9471 26.22 10.8263 26.0101C10.6998 25.7806 10.6467 25.5183 10.6741 25.2581C10.7015 24.9979 10.8081 24.7522 10.9796 24.5538C12.514 22.4032 14.0144 20.2526 15.5317 18.0851L16.1113 17.2215ZM47.2421 16.5272C47.2421 16.6796 47.2421 16.7982 47.3785 16.9167C48.4014 19.6091 49.4413 22.3016 50.4642 24.9771C50.522 25.1056 50.5567 25.2431 50.5666 25.3835C50.5864 25.6513 50.5098 25.9174 50.3506 26.1345C50.1914 26.3515 49.9598 26.5055 49.6971 26.5689C49.392 26.6543 49.0653 26.6192 48.7857 26.4708C48.506 26.3225 48.295 26.0724 48.1968 25.773L45.6225 18.9995L44.9577 17.3062C42.8973 18.3804 41.3218 20.1885 40.5472 22.368C39.7726 24.5474 39.856 26.9372 40.7807 29.0581C41.2722 30.1998 41.989 31.2321 42.8888 32.0941C43.7886 32.9561 44.853 33.6303 46.0194 34.077C47.1858 34.5237 48.4306 34.7337 49.68 34.6948C50.9295 34.6559 52.1584 34.3688 53.2944 33.8503C55.4099 32.9077 57.0932 31.2121 58.0125 29.0979C58.9318 26.9836 59.0205 24.604 58.261 22.4281C57.5015 20.2521 55.9489 18.4377 53.9093 17.3423C51.8698 16.2469 49.4911 15.9501 47.2421 16.5103M23.2036 6.92583C23.3741 7.34917 23.5104 7.77253 23.698 8.16201C23.698 8.16201 23.9537 8.29748 24.09 8.29748H41.5138C41.2922 7.73867 41.1047 7.23065 40.9001 6.72264C40.4057 5.41875 39.8771 4.09792 39.3827 2.7771C39.3547 2.6667 39.2876 2.57002 39.1936 2.50473C39.0997 2.43944 38.9853 2.40991 38.8713 2.42151C37.9507 2.42151 37.013 2.42151 36.0923 2.42151C35.9332 2.43791 35.7723 2.4214 35.6199 2.37306C35.4675 2.32472 35.3269 2.24557 35.2068 2.14059C35.0867 2.03561 34.9898 1.90708 34.9221 1.76308C34.8545 1.61908 34.8175 1.46274 34.8137 1.30388C34.8114 1.14091 34.842 0.979145 34.9037 0.828137C34.9654 0.67713 35.0571 0.539937 35.1731 0.424692C35.2891 0.309447 35.4272 0.2185 35.5792 0.157184C35.7313 0.095869 35.8941 0.0654514 36.0582 0.067731C37.371 0.067731 38.7008 0.067731 40.0135 0.067731C40.2975 0.0660525 40.574 0.158338 40.7993 0.330045C41.0247 0.501753 41.1861 0.743104 41.258 1.01601L44.9406 10.5496C45.3498 11.6334 45.793 12.7172 46.1851 13.8178C46.2874 14.0888 46.4067 14.1565 46.6965 14.0888C48.5 13.6547 50.3822 13.6589 52.1837 14.1011C53.9851 14.5433 55.6529 15.4103 57.0452 16.6288C59.2808 18.4991 60.6987 21.158 61.0004 24.0457C61.2526 26.1469 60.9231 28.2765 60.0474 30.2055C59.1717 32.1345 57.7828 33.7896 56.0304 34.9929C54.278 36.1961 52.2284 36.9018 50.1022 37.034C47.976 37.1662 45.8537 36.72 43.9639 35.7432C42.0741 34.7664 40.4882 33.2962 39.3771 31.4908C38.266 29.6854 37.6717 27.6132 37.6582 25.4972C37.6447 23.3812 38.2125 21.3017 39.3004 19.4824C40.3883 17.6631 41.9552 16.173 43.8324 15.1725L44.0711 15.0201L42.7072 11.5318C42.2981 11.989 41.94 12.3785 41.599 12.7849C37.8483 17.1368 34.0977 21.4718 30.364 25.8407C30.1718 26.1047 29.9131 26.3141 29.614 26.4478C29.3148 26.5815 28.9856 26.6349 28.6592 26.6027C27.0395 26.6027 25.4199 26.6027 23.8002 26.6027C23.5104 26.6027 23.3741 26.6027 23.3229 26.9922C22.9393 29.9183 21.4377 32.5859 19.1289 34.443C17.0276 36.1989 14.3561 37.1376 11.6105 37.0847C8.87161 37.0515 6.23097 36.0658 4.14791 34.2992C2.06484 32.5325 0.671087 30.0965 0.208949 27.4149C-0.253189 24.7332 0.245503 21.9755 1.6184 19.6213C2.99129 17.267 5.15152 15.4652 7.7234 14.529C9.23205 13.9567 10.8451 13.7061 12.4577 13.7936C14.0702 13.8811 15.6462 14.3048 17.0831 15.0371C17.1342 15.0725 17.1925 15.0963 17.2538 15.107C17.3152 15.1176 17.3782 15.1148 17.4383 15.0986C17.4985 15.0825 17.5543 15.0534 17.6019 15.0135C17.6495 14.9737 17.6877 14.9239 17.7139 14.8677C18.9243 13.1744 20.186 11.3286 21.4135 9.5675C21.4809 9.39892 21.4809 9.21112 21.4135 9.04254C21.2601 8.5684 21.0383 8.09426 20.8849 7.62012C20.7315 7.14598 20.6462 7.28144 20.3564 7.34917C20.0666 7.41691 19.3164 7.55239 18.7879 7.65399C18.2594 7.7556 17.9696 7.65398 17.8674 7.1121C17.7338 6.4425 17.6596 5.76255 17.6457 5.08007C17.6457 4.70753 17.9526 4.50434 18.43 4.50434H26.0677C26.5281 4.50434 26.6644 4.63979 26.6815 5.097C26.7164 5.26116 26.7148 5.43093 26.6767 5.59439C26.6386 5.75786 26.565 5.9111 26.4611 6.04337C26.3571 6.17563 26.2253 6.28374 26.0749 6.36012C25.9245 6.43651 25.7591 6.47932 25.5903 6.48557L23.1353 6.94278" fill="#376300"/>
</g>
<defs>
<clipPath id="clip0_872_268">
<rect width="61" height="37" fill="white"/>
</clipPath>
</defs>
</svg>
