<svg width="75" height="43" viewBox="0 0 75 43" fill="none" xmlns="http://www.w3.org/2000/svg">
<g clip-path="url(#clip0_872_251)">
<path d="M0.000488244 29.0565C-0.0147136 26.2036 0.937484 23.4301 2.70111 21.1904C4.47628 19.0654 6.88149 17.5632 9.56715 16.9019C9.71973 16.8661 9.85987 16.7896 9.97267 16.6806C10.0855 16.5716 10.1667 16.4341 10.2079 16.2826C11.0061 13.6564 12.6291 11.3585 14.8351 9.7305C17.0412 8.10254 19.7127 7.2315 22.4524 7.24691H23.6424C26.3905 7.58837 28.9492 8.82996 30.9206 10.7787C31.0468 10.9409 31.2249 11.0545 31.425 11.1005C31.6251 11.1465 31.8349 11.1219 32.0191 11.0309C34.5206 10.1006 37.2572 10.0162 39.8111 10.7905C42.365 11.5649 44.5959 13.1555 46.1631 15.3195C46.3807 15.7257 46.7155 16.0569 47.1237 16.2696C47.532 16.4823 47.9949 16.5668 48.4518 16.512C49.9468 16.4293 51.4442 16.6237 52.8689 17.0853C54.7185 17.8031 56.3955 18.9052 57.7896 20.3189L58.3389 20.9381L58.4762 21.1216C58.5412 21.1715 58.5957 21.2339 58.6364 21.3051L58.934 21.672L59.0713 21.8784L59.4832 22.4746C59.735 22.9104 59.9409 23.3232 60.1469 23.7589C60.3529 24.1947 60.3529 24.1947 60.4444 24.4011L60.6047 24.8368C60.7023 25.053 60.7863 25.2751 60.8564 25.5019L60.9937 25.9376C61.5382 27.7426 61.6713 29.647 61.3829 31.5104C61.1084 33.9312 60.1572 36.2251 58.6388 38.1279C57.1204 40.0308 55.0966 41.4653 52.8003 42.2661C51.8893 42.5585 50.9552 42.7733 50.0081 42.9083H11.9016C11.2628 42.9088 10.6258 42.8396 10.002 42.7019C7.14526 42.1508 4.5748 40.6058 2.7447 38.3397C0.914594 36.0737 -0.0573647 33.2324 0.000488244 30.3179V29.0565Z" fill="#376300"/>
<path d="M75.0002 30.9829C75.0328 29.4343 74.7423 27.8959 74.1472 26.4663C73.5521 25.0367 72.6656 23.7474 71.5444 22.6811L71.2925 22.4517C71.1941 22.3744 71.1187 22.2715 71.0743 22.1543C71.03 22.0371 71.0183 21.91 71.0408 21.7867C71.3064 19.3171 70.7852 16.8267 69.5518 14.6722C68.3185 12.5176 66.4362 10.8095 64.1748 9.79251C63.9939 9.71831 63.8309 9.6063 63.6967 9.46393C63.5625 9.32155 63.4603 9.15209 63.3967 8.96691C62.4697 6.66973 60.7042 4.8126 58.4595 3.77314C56.2147 2.73369 53.6591 2.58998 51.3124 3.37121C50.8981 3.51998 50.4451 3.51998 50.0307 3.37121C48.6306 2.87798 47.1327 2.72886 45.6631 2.93638C44.1934 3.1439 42.7951 3.70198 41.5855 4.56372C41.3109 4.56372 41.1965 4.17386 41.0363 3.96746C39.8032 2.28545 38.0617 1.04674 36.0703 0.435289C34.0789 -0.17616 31.9437 -0.127731 29.9819 0.573338C28.4802 1.12227 27.1294 2.0192 26.0396 3.19096C24.9497 4.36272 24.1518 5.77608 23.7109 7.31571C26.459 7.65716 29.0176 8.89876 30.9889 10.8475C31.1152 11.0097 31.2934 11.1233 31.4935 11.1693C31.6936 11.2152 31.9033 11.1907 32.0874 11.0997C34.589 10.1694 37.3257 10.085 39.8796 10.8593C42.4335 11.6337 44.6644 13.2243 46.2316 15.3883C46.4492 15.7945 46.784 16.1257 47.1922 16.3384C47.6005 16.5511 48.0634 16.6356 48.5203 16.5808C50.0157 16.4866 51.5153 16.6812 52.9374 17.1541C54.7915 17.8631 56.4702 18.9662 57.858 20.3877L58.4072 20.984L58.5446 21.1675L58.7048 21.3739L59.0023 21.7408L59.1396 21.9472C59.2899 22.1367 59.4275 22.3359 59.5516 22.5435C59.7996 22.9571 60.0213 23.3861 60.2154 23.8277C60.3283 24.0351 60.4277 24.2496 60.5129 24.4699C60.5129 24.6075 60.5129 24.7451 60.6732 24.9056C60.8334 25.0661 60.8562 25.3413 60.9249 25.5477L61.0622 26.0064C61.6067 27.8114 61.7396 29.7158 61.4512 31.5792C61.1768 34 60.2257 36.2939 58.7073 38.1967C57.1889 40.0996 55.165 41.5341 52.8687 42.3349C51.9576 42.6273 51.0237 42.8421 50.0766 42.9771H55.8668C58.5675 42.9771 61.2682 42.9771 63.9689 42.9771C65.6477 42.984 67.3063 42.6101 68.8204 41.8833C70.3345 41.1564 71.6648 40.0956 72.7115 38.7802C74.2153 36.805 75.0205 34.3846 75.0002 31.9002V30.9829Z" fill="#376300"/>
</g>
<defs>
<clipPath id="clip0_872_251">
<rect width="75" height="43" fill="white"/>
</clipPath>
</defs>
</svg>
