<svg width="79" height="30" viewBox="0 0 79 30" fill="none" xmlns="http://www.w3.org/2000/svg">
<g clip-path="url(#clip0_872_272)">
<path d="M55.5362 9.58727C50.4098 5.44609 43.9976 3.10319 37.3334 2.93631C37.5883 4.95282 37.6974 6.65094 38.0797 8.24292C38.2049 8.56059 38.4107 8.84234 38.6781 9.06192C38.9454 9.28151 39.2656 9.4318 39.6088 9.49882C44.8148 9.60496 50.0208 9.49882 55.5726 9.49882M34.5666 9.09199C35.0398 2.74176 34.3846 2.14033 28.232 3.2724C27.122 3.47052 26.0273 3.74239 24.9556 4.08609C21.9042 4.98605 19.1859 6.72456 17.1284 9.09199H34.5666ZM55.4452 25.1179H22.6802C22.5528 22.0047 22.0613 18.8738 19.0397 17.1403C17.3474 16.1376 15.4145 15.5827 13.4332 15.5307C8.64585 15.5307 5.93367 18.8915 5.38759 24.941C1.43759 25.9316 -0.0732422 24.941 -0.0732422 21.0495V19.5283C-0.0732422 11.2677 0.527467 10.684 8.59129 8.41981C10.552 8.0078 12.4084 7.22005 14.0521 6.1026C22.5892 -0.636785 32.2549 -0.972885 42.3756 0.919804C48.6698 2.0782 54.5795 4.70681 59.5954 8.57901C60.58 9.2355 61.6968 9.68164 62.872 9.88798C66.3487 10.7193 69.9164 11.1969 73.3203 12.2406C77.8892 13.6557 80.3102 20.0767 78.0894 24.2512C77.9083 24.5103 77.6742 24.7304 77.4017 24.8977C77.1293 25.0651 76.8243 25.1762 76.5058 25.2241C75.1537 25.2958 73.7987 25.2958 72.4466 25.2241C72.4466 21.987 71.9368 18.9269 69.0789 17.2288C67.3281 16.1581 65.3208 15.5485 63.2541 15.4599C58.485 15.4599 55.7182 18.9976 55.336 25.0472" fill="#376300"/>
<path d="M14.0162 30.0177C13.1629 30.0107 12.3193 29.8405 11.5336 29.5167C10.7479 29.1929 10.0356 28.7219 9.43721 28.1306C8.83885 27.5393 8.36618 26.8392 8.04623 26.0704C7.72628 25.3016 7.56532 24.479 7.5725 23.6497C7.57967 22.8205 7.7548 22.0007 8.088 21.2372C8.4212 20.4737 8.90593 19.7815 9.51443 19.2C10.1229 18.6186 10.8433 18.1593 11.6345 17.8483C12.4256 17.5374 13.2721 17.381 14.1254 17.388C15.8489 17.402 17.496 18.0809 18.7045 19.2751C19.9129 20.4693 20.5837 22.0811 20.5692 23.7559C20.5547 25.4307 19.8562 27.0313 18.6273 28.2056C17.3983 29.3799 15.7397 30.0318 14.0162 30.0177Z" fill="#376300"/>
<path d="M64.0736 17.388C64.922 17.3947 65.7606 17.5657 66.5403 17.8907C67.32 18.2158 68.0253 18.6885 68.615 19.2813C69.2046 19.8741 69.6669 20.575 69.9748 21.3433C70.2827 22.1115 70.4301 22.9317 70.4084 23.7559C70.4233 24.5829 70.2661 25.4043 69.9462 26.1707C69.6263 26.9372 69.1501 27.633 68.5465 28.2162C67.943 28.7994 67.2244 29.258 66.4338 29.5645C65.6433 29.8711 64.7972 30.0192 63.9463 30C63.0652 30.0362 62.1859 29.8977 61.3616 29.593C60.5374 29.2883 59.7856 28.8238 59.1521 28.2278C58.5185 27.6317 58.0165 26.9166 57.6764 26.1259C57.3364 25.3353 57.1655 24.4856 57.1741 23.6288C57.1828 22.7719 57.3708 21.9257 57.7268 21.1417C58.0827 20.3577 58.5992 19.6523 59.2447 19.0684C59.8902 18.4846 60.6512 18.0345 61.4814 17.7456C62.3116 17.4567 63.1935 17.335 64.0736 17.388Z" fill="#376300"/>
</g>
<defs>
<clipPath id="clip0_872_272">
<rect width="79" height="30" fill="white"/>
</clipPath>
</defs>
</svg>
