<svg width="68" height="57" viewBox="0 0 68 57" fill="none" xmlns="http://www.w3.org/2000/svg">
<g clip-path="url(#clip0_872_246)">
<path d="M31.8729 43.7958C31.782 43.1929 31.782 42.5799 31.8729 41.977C32.0054 36.497 33.2988 31.1058 35.669 26.1538C37.8579 21.6583 41.618 18.1037 46.2505 16.1506C50.8442 14.2366 55.1958 11.7949 59.216 8.87556C61.9947 6.81513 64.048 3.93863 65.0843 0.654757C65.1374 0.494181 65.1987 0.336358 65.2677 0.181882C65.2677 0.181882 65.2678 0.18188 65.3961 0.0727539C65.7629 0.218255 65.7629 0.600196 65.8546 0.891198C68.6535 9.05434 68.7627 17.8887 66.1663 26.1174C64.265 32.5479 60.1841 38.1306 54.6129 41.9225C51.9637 43.5496 49.046 44.7009 45.9937 45.3236C43.435 45.8121 40.9295 46.543 38.5115 47.5061C36.3414 48.5131 34.5359 50.1576 33.34 52.2167L33.1566 52.4895C32.9549 52.2894 33.1566 52.0712 33.1566 51.8893C34.4435 46.5135 36.2872 41.2841 38.6582 36.2843C41.2896 30.9455 45.4734 26.5111 50.6701 23.553C53.7639 21.9032 56.4702 19.6221 58.6108 16.8599C58.8151 16.608 58.9481 16.3067 58.9959 15.9869C58.3541 16.6417 57.7489 17.3328 57.1621 17.9512C55.5562 19.3837 53.7455 20.5727 51.7887 21.4796C49.3417 22.5796 46.9923 23.8816 44.7651 25.3717C41.0831 28.2043 38.0669 31.7977 35.9258 35.9024C34.6489 38.2659 33.4981 40.6942 32.4781 43.1774C32.3681 43.4139 32.3497 43.6867 32.0013 43.9049" fill="#376300"/>
<path d="M30.7911 57C28.7797 54.2919 25.8372 52.409 22.5204 51.7074L19.8612 50.9435C15.5712 49.906 11.6235 47.7887 8.39952 44.7961C4.22335 40.711 1.47314 35.409 0.550492 29.664C-0.0326822 26.4046 -0.149872 23.08 0.202163 19.7881C0.202163 19.6426 0.202118 19.4608 0.385506 19.3516C0.568893 19.2425 0.532153 19.3516 0.550492 19.4971C1.10509 20.7316 1.9111 21.839 2.91783 22.7498C3.92456 23.6606 5.11026 24.3551 6.40055 24.7897C9.82989 26.2265 13.351 27.4633 16.6887 29.1002C20.3044 30.7363 23.4549 33.2359 25.858 36.3752C27.9297 39.3568 29.3364 42.7422 29.9842 46.3057C30.5977 49.4656 30.9291 52.6729 30.9745 55.8905C31.0497 56.2467 30.9841 56.6178 30.7911 56.9272" fill="#376300"/>
</g>
<defs>
<clipPath id="clip0_872_246">
<rect width="68" height="57" fill="white"/>
</clipPath>
</defs>
</svg>
