<svg width="34" height="61" viewBox="0 0 34 61" fill="none" xmlns="http://www.w3.org/2000/svg">
<g clip-path="url(#clip0_872_239)">
<path d="M10.967 21.4059C10.3568 21.6985 9.79882 21.9566 9.22344 22.2663C9.07732 22.4142 8.97487 22.5986 8.92706 22.7997C7.8809 26.2412 6.81732 29.6827 5.77117 33.2618C5.68174 33.6206 5.51815 33.9572 5.29078 34.2508C5.06342 34.5443 4.77719 34.7884 4.44985 34.9677C4.12251 35.147 3.7611 35.2576 3.38842 35.2928C3.01573 35.3279 2.6398 35.2867 2.28399 35.1718C1.8997 35.1092 1.5332 34.967 1.20872 34.7544C0.884232 34.5418 0.609123 34.2637 0.401518 33.9385C0.193912 33.6133 0.0585648 33.2483 0.00435724 32.8677C-0.0498503 32.4871 -0.0216803 32.0994 0.0870458 31.7303L3.74854 19.5992C3.86516 19.2235 4.06051 18.8762 4.32183 18.5798C4.58315 18.2833 4.90459 18.0444 5.26546 17.8784C8.19469 16.4158 11.089 14.9016 13.9834 13.4389C14.5392 13.1114 15.1583 12.9023 15.8008 12.8251C16.4434 12.748 17.0953 12.8044 17.7145 12.9908C18.3337 13.1772 18.9064 13.4894 19.3959 13.9074C19.8855 14.3254 20.2809 14.8399 20.5568 15.4178C21.0327 16.6172 21.0758 17.9418 20.6788 19.169C19.8231 22.7914 19.3037 26.4834 19.127 30.1989C19.0747 31.0929 19.0747 31.9892 19.127 32.8832C19.1723 33.1637 19.3067 33.4228 19.5107 33.6231C21.5332 35.8945 23.5557 38.1831 25.6655 40.3684C26.6074 41.3686 27.216 42.6298 27.4091 43.982C28.1762 48.2494 28.9957 52.5856 29.8152 56.767C29.9369 57.2557 29.9562 57.7637 29.8721 58.26C29.7879 58.7563 29.602 59.2305 29.3258 59.6535C29.0496 60.0765 28.6889 60.4394 28.2656 60.7201C27.8424 61.0008 27.3657 61.1933 26.8645 61.2859C26.3633 61.3785 25.8482 61.3692 25.3508 61.2586C24.8534 61.148 24.3841 60.9384 23.9716 60.6427C23.559 60.3469 23.2119 59.9712 22.9515 59.5386C22.6912 59.1059 22.5231 58.6254 22.4573 58.1264C21.6727 53.9622 20.888 49.7808 20.086 45.6166C20.0456 45.3552 19.9307 45.1105 19.7547 44.9112C16.6685 41.4697 13.5999 38.0282 10.4614 34.7588C9.84468 34.1472 9.39982 33.3877 9.17055 32.555C8.94127 31.7224 8.93547 30.8451 9.15373 30.0096C9.76399 27.3252 10.3045 24.6237 10.8973 21.9394C10.9078 21.8191 10.9078 21.6982 10.8973 21.578" fill="#376300"/>
<path d="M9.65902 36.7549L13.9831 41.246C14.4632 41.7026 14.9172 42.1852 15.3431 42.6914C15.4076 42.7733 15.4534 42.868 15.4774 42.9689C15.5015 43.0699 15.5033 43.1748 15.4827 43.2764C13.8785 47.9741 12.2744 52.6544 10.618 57.3348C10.4277 58.0034 10.0532 58.6068 9.53599 59.0777C9.01881 59.5486 8.37932 59.8686 7.68875 60.002C7.08894 60.1321 6.46361 60.0858 5.89025 59.8686C5.31688 59.6514 4.82072 59.273 4.46315 58.7803C3.95525 58.1562 3.61927 57.4132 3.48792 56.6233C3.35656 55.8335 3.43428 55.0235 3.71342 54.2719C5.5965 48.5763 7.5493 42.8807 9.46725 37.2023C9.51811 37.048 9.58225 36.8983 9.65902 36.7549Z" fill="#376300"/>
<path d="M22.0734 0C23.6549 0 25.1717 0.620013 26.29 1.72365C27.4083 2.82728 28.0364 4.32414 28.0364 5.88492C28.0364 7.44569 27.4083 8.94254 26.29 10.0462C25.1717 11.1498 23.6549 11.7698 22.0734 11.7698C20.4919 11.7698 18.9752 11.1498 17.8569 10.0462C16.7386 8.94254 16.1104 7.44569 16.1104 5.88492C16.1104 4.32414 16.7386 2.82728 17.8569 1.72365C18.9752 0.620013 20.4919 0 22.0734 0Z" fill="#376300"/>
<path d="M22.6844 20.4939L26.4506 23.2815C28.5603 24.8302 30.6701 26.3788 32.7624 27.9619C33.0715 28.1879 33.3324 28.4717 33.5304 28.7972C33.7284 29.1228 33.8594 29.4836 33.9161 29.8591C33.9727 30.2345 33.954 30.6174 33.8607 30.9857C33.7675 31.354 33.6016 31.7006 33.3726 32.0057C33.1436 32.3107 32.8561 32.5683 32.5262 32.7636C32.1964 32.959 31.8308 33.0883 31.4503 33.1443C31.0698 33.2002 30.6819 33.1816 30.3087 33.0896C29.9355 32.9975 29.5843 32.8339 29.2752 32.6079C26.869 30.8872 24.4803 29.1664 22.0567 27.4457C21.9079 27.3384 21.7974 27.1874 21.7411 27.0143C21.6847 26.8411 21.6853 26.6548 21.7429 26.4821C21.987 24.899 22.2485 23.3159 22.4926 21.7329C22.4926 21.3543 22.5973 20.9585 22.667 20.4767" fill="#376300"/>
</g>
<defs>
<clipPath id="clip0_872_239">
<rect width="34" height="61" fill="white"/>
</clipPath>
</defs>
</svg>
