<svg width="51" height="58" viewBox="0 0 51 58" fill="none" xmlns="http://www.w3.org/2000/svg">
<g clip-path="url(#clip0_872_249)">
<path d="M19.3295 34.5543C19.2529 34.6177 19.1796 34.6851 19.1101 34.7562L17.7257 36.574C17.6413 36.6918 17.5738 36.7591 17.7257 36.8601C18.3335 37.1631 18.9413 37.4997 19.5659 37.7858C19.9643 37.9976 20.4263 38.0574 20.8657 37.9541L19.1776 34.5879M20.3931 34.285C20.4158 34.4111 20.4497 34.535 20.4944 34.6552C20.9502 35.4968 21.406 36.3383 21.8787 37.1462C22.2154 37.8085 22.7006 38.3844 23.2967 38.8293C23.3878 38.9158 23.5087 38.964 23.6344 38.964C23.7601 38.964 23.881 38.9158 23.972 38.8293C24.1748 38.6172 24.3403 38.3726 24.4616 38.1056C24.6979 37.4997 24.8837 36.8769 25.0694 36.2542C25.1538 35.9176 25.1707 35.5641 25.2382 35.177C23.5757 35.3644 21.8941 35.0723 20.3931 34.3354M28.3951 34.1671C28.0079 34.3118 27.6301 34.4805 27.264 34.6721C27.1627 34.6721 27.129 34.9582 27.0783 35.1097C26.8926 35.8503 26.6901 36.5908 26.5381 37.3314C26.4368 37.8195 26.4368 38.3076 26.3355 38.7957C26.2178 39.2083 26.2178 39.6455 26.3355 40.058C26.5212 40.6471 26.8757 40.8659 27.4666 40.6471C28.5427 40.21 29.5274 39.5763 30.3702 38.7789C29.9313 38.0551 29.4587 37.3651 29.0704 36.6413C28.6657 35.8741 28.4242 35.0318 28.3613 34.1671M19.0763 58.101C19.1944 57.5624 19.2958 57.0574 19.4139 56.5525C19.5321 56.0476 19.6672 55.5932 19.7854 55.1051C19.9036 54.617 20.0385 53.9605 20.1398 53.4219C20.2411 52.8833 20.3932 51.9576 20.5451 51.217C20.8322 49.3747 20.917 47.5066 20.7983 45.646C20.7983 44.4173 20.6463 43.1886 20.5788 41.9599C20.5788 41.5055 20.5788 41.0679 20.5788 40.664C20.1784 40.6314 19.7824 40.5581 19.397 40.4451C18.7035 40.178 18.027 39.8689 17.3713 39.5194C16.7467 39.1828 16.1727 38.7452 15.5649 38.3581C15.5171 38.3367 15.4653 38.3257 15.4129 38.3257C15.3606 38.3257 15.3089 38.3367 15.2611 38.3581C14.5689 38.5769 13.8936 38.8294 13.2014 39.0313C12.2079 39.2414 11.185 39.2756 10.1796 39.1323C9.35364 39.0187 8.55381 38.7624 7.81612 38.3749C6.45984 37.7385 5.29539 36.7575 4.43976 35.5305C3.9226 34.8137 3.53946 34.0097 3.3087 33.1573C3.17365 32.6018 3.03854 32.0296 2.93725 31.4742C2.83596 30.9187 2.93725 30.8009 2.93725 30.4643C2.92766 30.3146 2.86829 30.1725 2.76847 30.0604C1.89425 29.3248 1.18654 28.4127 0.692039 27.3842C0.367112 26.6849 0.123566 25.9507 -0.0338674 25.1962C-0.188452 24.3125 -0.216953 23.4116 -0.118359 22.52C-0.0123684 21.6176 0.250448 20.7405 0.658242 19.928C1.21235 18.8138 1.99444 17.8276 2.95415 17.0331C3.66318 16.7301 3.76454 16.1578 3.76454 15.35C3.78932 14.0884 4.10709 12.8497 4.69292 11.7312C5.27875 10.6127 6.11669 9.64487 7.14091 8.90364C8.00772 8.2427 9.00192 7.76712 10.0614 7.50665C11.002 7.25736 11.9777 7.16636 12.9483 7.23737C13.2015 7.23737 13.3028 7.23737 13.3703 6.91758C13.7085 5.18768 14.5828 3.60728 15.8701 2.39935C17.1574 1.19143 18.7927 0.416948 20.5451 0.185134C22.1814 -0.0411961 23.8484 0.208485 25.3459 0.904185C26.8433 1.59989 28.1074 2.71199 28.986 4.10679C29.2223 4.47707 29.2222 4.47707 29.6274 4.24144C30.3668 3.78824 31.1964 3.50107 32.0584 3.39988C32.9443 3.30779 33.8354 3.27404 34.7258 3.29887C35.703 3.40483 36.6497 3.70228 37.5113 4.1741C38.498 4.67731 39.3757 5.36934 40.0942 6.21067C40.6881 6.8795 41.157 7.64906 41.4785 8.48286C41.5069 8.57786 41.5645 8.66153 41.6434 8.72196C41.7222 8.7824 41.8181 8.81654 41.9174 8.8195C43.3783 9.03135 44.7611 9.61058 45.9353 10.5026C47.1815 11.4462 48.1401 12.7165 48.704 14.1718C49.2111 15.4367 49.3798 16.8113 49.1935 18.1607C49.1935 18.7835 48.9065 19.4062 48.7883 20.029C48.7733 20.1114 48.776 20.1961 48.7964 20.2773C48.8168 20.3586 48.8544 20.4346 48.9065 20.5003C49.7414 21.497 50.3208 22.6811 50.5947 23.9507C50.741 24.7386 50.8032 25.5397 50.7804 26.3407C50.7687 27.7852 50.3346 29.1949 49.5312 30.397C48.655 31.8549 47.3697 33.0252 45.834 33.7632H45.682C45.5563 33.7853 45.4415 33.8487 45.3559 33.9432C45.2703 34.0377 45.2187 34.1579 45.2094 34.285C45.0764 35.0044 44.8728 35.7091 44.6017 36.3888C43.9861 37.867 42.9541 39.1356 41.6305 40.0412C40.9064 40.5623 40.0944 40.95 39.2332 41.1857C38.409 41.4468 37.5489 41.5774 36.6841 41.5728C35.0799 41.5673 33.5104 41.106 32.1597 40.2432C31.9402 40.0917 31.8558 40.2432 31.7376 40.2432C30.6572 41.3709 29.5599 42.4985 28.4964 43.6094C28.3382 43.8237 28.2551 44.0839 28.26 44.3499C28.0799 45.8872 27.9111 47.4188 27.7536 48.9449C27.7057 49.9854 27.8023 51.0276 28.0405 52.0418C28.1587 52.6814 28.2431 53.3378 28.3782 53.9773C28.6314 55.1555 28.9185 56.3169 29.1886 57.4951C29.1886 57.6634 29.1886 57.8317 29.273 58.0337L19.0763 58.101Z" fill="#376300"/>
</g>
<defs>
<clipPath id="clip0_872_249">
<rect width="51" height="58" fill="white"/>
</clipPath>
</defs>
</svg>
